<svg width="75" height="25" viewBox="0 0 75 25" fill="none" xmlns="http://www.w3.org/2000/svg">
<path d="M7.92 3.248L6.12 3.464V13.568C6.12 15.072 6.096 16.312 6.048 17.288C6 18.264 5.896 19.096 5.736 19.784C5.48 20.712 5.024 21.52 4.368 22.208C3.712 22.912 2.96 23.464 2.112 23.864C1.264 24.264 0.416 24.504 -0.432 24.584L-1.104 23.648C0.768 22.992 1.992 21.992 2.568 20.648C2.792 19.992 2.936 19.264 3 18.464C3.08 17.664 3.12 16.6 3.12 15.272V3.464L1.248 3.248V1.808H7.92V3.248ZM9.87475 8.504V7.4L13.4268 6.608L13.9068 6.824V14.912C13.9068 16.16 14.0588 17.056 14.3628 17.6C14.6828 18.128 15.2828 18.392 16.1628 18.392C16.6748 18.392 17.2028 18.28 17.7468 18.056C18.3068 17.832 18.7148 17.6 18.9708 17.36V9.152L17.5068 8.624V7.424L21.4188 6.608L21.8508 6.8V18.776H23.2428V19.832C23.0028 19.976 22.6108 20.104 22.0668 20.216C21.5228 20.328 21.0508 20.384 20.6508 20.384C20.2188 20.384 19.8748 20.288 19.6188 20.096C19.3788 19.92 19.2588 19.648 19.2588 19.28V18.488C18.6988 19.032 18.0428 19.464 17.2908 19.784C16.5388 20.104 15.8188 20.264 15.1308 20.264C13.9788 20.264 13.1068 20.056 12.5148 19.64C11.9388 19.208 11.5548 18.616 11.3628 17.864C11.1708 17.112 11.0668 16.12 11.0508 14.888V9.032L9.87475 8.504ZM37.2074 1.232V18.776H38.8154V19.808C38.5274 19.968 38.1194 20.104 37.5914 20.216C37.0634 20.328 36.5194 20.384 35.9594 20.384C35.4474 20.384 35.0794 20.288 34.8554 20.096C34.6314 19.904 34.4874 19.568 34.4234 19.088C34.0714 19.408 33.5434 19.696 32.8394 19.952C32.1514 20.192 31.3914 20.312 30.5594 20.312C29.5834 20.312 28.6954 20.048 27.8954 19.52C27.0954 18.992 26.4554 18.232 25.9754 17.24C25.5114 16.232 25.2794 15.04 25.2794 13.664C25.2794 12.288 25.5914 11.056 26.2154 9.968C26.8554 8.88 27.7114 8.032 28.7834 7.424C29.8714 6.8 31.0634 6.488 32.3594 6.488C33.0794 6.488 33.7114 6.568 34.2554 6.728V3.224L31.7114 2.72V1.448L36.5834 0.943999L37.2074 1.232ZM32.0474 7.88C31.4074 7.88 30.7994 8.08 30.2234 8.48C29.6474 8.88 29.1754 9.472 28.8074 10.256C28.4554 11.04 28.2794 11.992 28.2794 13.112C28.2794 14.2 28.4314 15.16 28.7354 15.992C29.0394 16.824 29.4554 17.464 29.9834 17.912C30.5274 18.36 31.1354 18.584 31.8074 18.584C32.2874 18.584 32.7434 18.52 33.1754 18.392C33.6234 18.264 33.9914 18.08 34.2794 17.84V8.624C33.7194 8.128 32.9754 7.88 32.0474 7.88ZM43.9956 0.343998C44.5876 0.343998 45.0356 0.503999 45.3396 0.823999C45.6596 1.128 45.8196 1.544 45.8196 2.072C45.8196 2.664 45.6036 3.152 45.1716 3.536C44.7396 3.92 44.2356 4.112 43.6596 4.112C43.1636 4.112 42.7316 3.952 42.3636 3.632C42.0116 3.312 41.8356 2.896 41.8356 2.384C41.8356 1.824 42.0596 1.344 42.5076 0.943999C42.9556 0.543999 43.4516 0.343998 43.9956 0.343998ZM45.5556 6.848V18.512L47.3796 18.776V20H40.8276V18.776L42.6756 18.512V9.752L41.0916 8.6V7.736L44.8596 6.608L45.5556 6.848ZM55.9456 6.536C56.6016 6.504 57.2736 6.544 57.9616 6.656C58.6656 6.768 59.1856 6.92 59.5216 7.112V10.28H58.0336L57.3136 8.528C56.9136 8.224 56.3216 8.072 55.5376 8.072C54.4976 8.072 53.6496 8.504 52.9936 9.368C52.3536 10.232 52.0336 11.4 52.0336 12.872C52.0336 14.056 52.2176 15.064 52.5856 15.896C52.9696 16.728 53.4736 17.352 54.0976 17.768C54.7216 18.184 55.4016 18.392 56.1376 18.392C56.7456 18.392 57.3696 18.328 58.0096 18.2C58.6496 18.056 59.1296 17.88 59.4496 17.672L59.9536 18.848C59.4416 19.296 58.7456 19.648 57.8656 19.904C57.0016 20.144 56.0656 20.264 55.0576 20.264C53.8256 20.264 52.7616 19.984 51.8656 19.424C50.9696 18.864 50.2816 18.088 49.8016 17.096C49.3376 16.088 49.1056 14.944 49.1056 13.664C49.1056 12.256 49.4016 11.024 49.9936 9.968C50.5856 8.896 51.3936 8.064 52.4176 7.472C53.4576 6.88 54.6336 6.568 55.9456 6.536ZM68.4149 6.488C70.3989 6.488 71.9109 7.096 72.9509 8.312C73.9909 9.512 74.5109 11.12 74.5109 13.136C74.5109 14.544 74.2309 15.792 73.6709 16.88C73.1109 17.952 72.3429 18.792 71.3669 19.4C70.3909 19.992 69.2869 20.288 68.0549 20.288C65.9909 20.288 64.4309 19.656 63.3749 18.392C62.3189 17.112 61.7909 15.448 61.7909 13.4C61.7909 11.992 62.0869 10.768 62.6789 9.728C63.2709 8.688 64.0629 7.888 65.0549 7.328C66.0629 6.768 67.1829 6.488 68.4149 6.488ZM68.1749 7.928C66.0149 7.928 64.9349 9.64 64.9349 13.064C64.9349 14.632 65.2069 15.976 65.7509 17.096C66.2949 18.216 67.1029 18.784 68.1749 18.8C69.3429 18.816 70.1669 18.352 70.6469 17.408C71.1429 16.464 71.3909 15.112 71.3909 13.352C71.3909 11.736 71.1269 10.432 70.5989 9.44C70.0869 8.432 69.2789 7.928 68.1749 7.928Z" fill="#252B42"/>
</svg>
