<svg width="72" height="72" viewBox="0 0 72 72" fill="none" xmlns="http://www.w3.org/2000/svg">
<rect width="72" height="72" rx="36" fill="#295C7A"/>
<g clip-path="url(#clip0_964_9454)">
<path d="M32.4439 28.0088H27.8978C27.4771 28.0088 27.1361 28.3498 27.1361 28.7705C27.1361 29.1912 27.4771 29.5322 27.8978 29.5322H32.4439C32.8645 29.5322 33.2057 29.1912 33.2057 28.7705C33.2057 28.3498 32.8645 28.0088 32.4439 28.0088Z" fill="white"/>
<path d="M32.4439 31.0562H27.8978C27.4771 31.0562 27.1361 31.3971 27.1361 31.8179C27.1361 32.2386 27.4771 32.5796 27.8978 32.5796H32.4439C32.8645 32.5796 33.2057 32.2386 33.2057 31.8179C33.2057 31.3971 32.8645 31.0562 32.4439 31.0562Z" fill="white"/>
<path d="M32.4439 34.103H27.8978C27.4771 34.103 27.1361 34.444 27.1361 34.8647C27.1361 35.2855 27.4771 35.6265 27.8978 35.6265H32.4439C32.8645 35.6265 33.2057 35.2855 33.2057 34.8647C33.2057 34.444 32.8645 34.103 32.4439 34.103Z" fill="white"/>
<path d="M32.4439 37.1499H27.8978C27.4771 37.1499 27.1361 37.4909 27.1361 37.9116C27.1361 38.3324 27.4771 38.6733 27.8978 38.6733H32.4439C32.8645 38.6733 33.2057 38.3324 33.2057 37.9116C33.2057 37.4909 32.8645 37.1499 32.4439 37.1499Z" fill="white"/>
<path d="M32.4439 40.248H27.8978C27.4771 40.248 27.1361 40.5892 27.1361 41.0098C27.1361 41.4305 27.4771 41.7715 27.8978 41.7715H32.4439C32.8645 41.7715 33.2057 41.4305 33.2057 41.0098C33.2057 40.5892 32.8645 40.248 32.4439 40.248Z" fill="white"/>
<path d="M35.0021 29.5322H39.5482C39.9689 29.5322 40.3099 29.1912 40.3099 28.7705C40.3099 28.3498 39.9689 28.0088 39.5482 28.0088H35.0021C34.5815 28.0088 34.2404 28.3498 34.2404 28.7705C34.2404 29.1912 34.5815 29.5322 35.0021 29.5322Z" fill="white"/>
<path d="M35.0021 32.5796H39.5482C39.9689 32.5796 40.3099 32.2386 40.3099 31.8179C40.3099 31.3971 39.9689 31.0562 39.5482 31.0562H35.0021C34.5815 31.0562 34.2404 31.3971 34.2404 31.8179C34.2404 32.2386 34.5815 32.5796 35.0021 32.5796Z" fill="white"/>
<path d="M37.9533 34.8647C37.9533 34.444 37.6124 34.103 37.1916 34.103H35.0021C34.5815 34.103 34.2404 34.444 34.2404 34.8647C34.2404 35.2855 34.5815 35.6265 35.0021 35.6265H37.1916C37.6124 35.6265 37.9533 35.2855 37.9533 34.8647Z" fill="white"/>
<path d="M45.1693 40.5695C44.8412 40.3062 44.3619 40.3588 44.0985 40.6869L42.1367 43.1327L40.9221 42.2528C40.5815 42.0058 40.105 42.082 39.8582 42.4226C39.6115 42.7634 39.6877 43.2396 40.0282 43.4864L41.83 44.7918C41.9649 44.8894 42.1212 44.9368 42.2765 44.9368C42.5001 44.9368 42.721 44.8386 42.871 44.6516L45.2869 41.6402C45.5501 41.3121 45.4976 40.8327 45.1693 40.5695Z" fill="white"/>
<path d="M47.0946 38.2314C46.1023 37.2217 44.8275 36.5854 43.446 36.3979V26.0677C43.446 24.3763 42.0698 23 40.3783 23H27.0679C25.3763 23 24 24.3763 24 26.0677V43.7128C24 45.4044 25.3763 46.7807 27.0677 46.7807H37.7732C38.9779 48.1958 40.71 49 42.584 49C46.0722 49 48.91 46.1602 48.91 42.6696C48.91 40.9986 48.2653 39.4224 47.0946 38.2314ZM25.5234 43.7128V26.0677C25.5234 25.2163 26.2163 24.5234 27.0679 24.5234H40.3783C41.2299 24.5234 41.9226 25.2163 41.9226 26.0677V36.3737C38.744 36.7056 36.2579 39.4023 36.2579 42.6696C36.2579 43.5751 36.4468 44.4507 36.809 45.2571H27.0679C26.2163 45.2571 25.5234 44.5644 25.5234 43.7128ZM42.584 47.4766C41.0627 47.4766 39.6642 46.7781 38.7468 45.5606C38.1152 44.7221 37.7812 43.7225 37.7812 42.6696C37.7812 40.0191 39.9358 37.8626 42.584 37.8626C42.6089 37.8626 42.6341 37.863 42.6591 37.8634L42.6708 37.8636C43.935 37.886 45.1202 38.3958 46.0081 39.2992C46.897 40.2035 47.3865 41.4007 47.3865 42.6696C47.3865 45.3201 45.2321 47.4766 42.584 47.4766Z" fill="white"/>
</g>
<defs>
<clipPath id="clip0_964_9454">
<rect width="24.9336" height="26" fill="white" transform="translate(24 23)"/>
</clipPath>
</defs>
</svg>
