<svg width="73" height="72" viewBox="0 0 73 72" fill="none" xmlns="http://www.w3.org/2000/svg">
<rect x="0.5" width="72" height="72" rx="36" fill="#295C7A"/>
<g clip-path="url(#clip0_964_9462)">
<path d="M29.9808 31.8536C29.7828 31.6556 29.4608 31.6556 29.2628 31.8536C29.0643 32.0522 29.0643 32.3736 29.2628 32.5717C29.4609 32.7702 29.7828 32.7702 29.9808 32.5717C30.1793 32.3736 30.1793 32.0522 29.9808 31.8536Z" fill="white"/>
<path d="M36.8578 45.7354C37.0817 45.4321 37.2027 45.0667 37.2027 44.6826C37.2027 43.7026 36.4054 42.9053 35.4254 42.9053H26.7929C26.3179 42.9053 25.8716 43.0901 25.5361 43.4257C25.2004 43.7613 25.0156 44.2076 25.0156 44.6826C25.0156 45.0761 25.1444 45.44 25.3616 45.7348C24.5531 46.1599 24 47.0079 24 47.9832V48.491C24 48.7715 24.2274 48.9988 24.5078 48.9988H37.7104C37.9908 48.9988 38.2182 48.7715 38.2182 48.491V47.9832C38.2182 47.0084 37.6657 46.1607 36.8578 45.7354ZM26.2542 44.1438C26.3979 44 26.5893 43.9208 26.7929 43.9208H35.4254C35.8454 43.9208 36.187 44.2625 36.187 44.6825C36.187 44.8861 36.1078 45.0774 35.964 45.2212C35.8202 45.365 35.6289 45.4442 35.4253 45.4442H26.7929C26.3729 45.4442 26.0312 45.1025 26.0312 44.6825C26.0312 44.4789 26.1104 44.2876 26.2542 44.1438ZM25.0156 47.9832C25.0156 47.1432 25.699 46.4598 26.539 46.4598H26.7929H35.4254H35.6793C36.5193 46.4598 37.2027 47.1432 37.2027 47.9832H25.0156Z" fill="white"/>
<path d="M49.5292 44.3344C49.3568 44.0671 49.151 43.8308 48.9176 43.6319L46.5448 41.5624C46.5263 41.5346 46.5049 41.5082 46.4804 41.4837C46.4392 41.4425 46.3924 41.4103 46.3428 41.3863L44.9078 40.1348L38.2662 34.3411C38.538 34.0569 38.6878 33.6852 38.6878 33.29C38.6878 32.8828 38.5293 32.5002 38.2412 32.2121C38.1155 32.0866 37.9728 31.988 37.8202 31.9157L38.4346 31.3013C38.6063 31.3469 38.7828 31.3703 38.9594 31.3703C39.4795 31.3702 39.9996 31.1723 40.3955 30.7764C40.7793 30.3926 40.9906 29.8825 40.9906 29.34C40.9906 28.7975 40.7793 28.2874 40.3955 27.9037L36.0868 23.5951C35.7031 23.2114 35.1929 23 34.6503 23C34.1079 23 33.5979 23.2114 33.2142 23.5951C32.6838 24.1255 32.5092 24.8785 32.6893 25.556L26.5588 31.6865C26.3893 31.6415 26.2131 31.6177 26.033 31.6177C25.4903 31.6177 24.9804 31.8289 24.5969 32.2123C23.8049 33.0043 23.8049 34.293 24.5969 35.085L28.9056 39.3937C29.3016 39.7897 29.8217 39.9877 30.3419 39.9877C30.8621 39.9877 31.3823 39.7897 31.7783 39.3937C32.3087 38.8633 32.4832 38.1103 32.3032 37.4328L32.9164 36.8196C32.99 36.9734 33.09 37.1154 33.2142 37.2396C33.502 37.5273 33.8845 37.6858 34.2916 37.6858C34.6864 37.6858 35.0579 37.5363 35.3425 37.2648L42.4167 45.3925C42.4362 45.423 42.4589 45.452 42.4855 45.4786C42.4946 45.4877 42.5043 45.4959 42.5139 45.5042L44.6218 47.9261C44.6742 47.988 44.7303 48.0488 44.7884 48.107C45.3674 48.6857 46.1321 48.9998 46.9349 48.9998C47.0765 48.9998 47.2193 48.99 47.3624 48.9702C48.3185 48.8379 49.1449 48.2659 49.6294 47.4007C50.1602 46.4525 50.1207 45.2486 49.5292 44.3344ZM33.9324 24.3133C34.1243 24.1214 34.3793 24.0156 34.6503 24.0156C34.9217 24.0156 35.1769 24.1214 35.3687 24.3133L39.6774 28.6219C39.8693 28.8138 39.975 29.0689 39.975 29.3401C39.975 29.6113 39.8693 29.8664 39.6774 30.0583C39.2815 30.4542 38.6373 30.4542 38.2415 30.0583L33.9326 25.7494C33.9325 25.7493 33.9325 25.7493 33.9324 25.7492C33.5364 25.3533 33.5364 24.7091 33.9324 24.3133ZM31.0602 38.6756C30.6642 39.0716 30.0197 39.0716 29.6237 38.6756L25.3151 34.3669C24.919 33.9709 24.919 33.3266 25.3151 32.9305C25.5066 32.7389 25.7616 32.6334 26.033 32.6334C26.3043 32.6334 26.5592 32.7388 26.7507 32.9303L31.0601 37.2397C31.4561 37.6355 31.4561 38.2797 31.0602 38.6756ZM33.1981 35.1016L31.7782 36.5215L27.4692 32.2124L33.2142 26.4673L37.5232 30.7764L36.1007 32.1989C36.0961 32.2033 36.0916 32.2076 36.0867 32.2124L33.2157 35.0835C33.2097 35.0893 33.204 35.0954 33.1981 35.1016ZM35.0113 36.1609C35.0103 36.1619 35.0094 36.1629 35.0083 36.1639L34.6507 36.5215C34.5548 36.6174 34.4273 36.6702 34.2915 36.6702C34.1558 36.6702 34.0282 36.6174 33.9323 36.5215C33.8363 36.4255 33.7834 36.2978 33.7834 36.162C33.7834 36.029 33.8342 35.904 33.9262 35.8096L36.8107 32.9252C37.0084 32.7329 37.328 32.7353 37.5233 32.9305C37.6193 33.0265 37.6722 33.1541 37.6722 33.29C37.6722 33.4257 37.6195 33.553 37.5233 33.6489L37.1678 34.0044C37.1653 34.0068 37.1629 34.0093 37.1605 34.0117L35.0113 36.1609ZM36.0629 36.5456L37.5471 35.0615L43.8308 40.5425L41.5378 42.8356L36.0629 36.5456ZM42.2062 43.6035L44.5979 41.2117L45.3651 41.8808L42.8745 44.3714L42.2062 43.6035ZM48.7434 46.9046C48.4156 47.4897 47.8615 47.8759 47.2232 47.9643C46.5863 48.0524 45.9605 47.8426 45.5064 47.3888C45.4674 47.3498 45.43 47.3091 45.3951 47.2679C45.3935 47.2659 45.3919 47.264 45.3902 47.2621L43.5428 45.1394L46.1322 42.5499L48.2523 44.3992C48.2539 44.4006 48.2555 44.402 48.2572 44.4034C48.4159 44.5384 48.5567 44.7004 48.6762 44.8855C49.0602 45.4789 49.0871 46.2904 48.7434 46.9046Z" fill="white"/>
<path d="M33.5715 28.2625C33.3731 28.0642 33.0517 28.0642 32.8533 28.2625L30.6988 30.417C30.5005 30.6153 30.5005 30.9369 30.6988 31.1351C30.798 31.2343 30.9279 31.2839 31.0578 31.2839C31.1878 31.2839 31.3177 31.2343 31.4169 31.1351L33.5715 28.9806C33.7698 28.7823 33.7698 28.4608 33.5715 28.2625Z" fill="white"/>
</g>
<defs>
<clipPath id="clip0_964_9462">
<rect width="26" height="26" fill="white" transform="translate(24 23)"/>
</clipPath>
</defs>
</svg>
