<svg width="73" height="72" viewBox="0 0 73 72" fill="none" xmlns="http://www.w3.org/2000/svg">
<rect x="0.5" width="72" height="72" rx="36" fill="#295C7A"/>
<g clip-path="url(#clip0_964_9470)">
<g clip-path="url(#clip1_964_9470)">
<path d="M37.8437 46.176H35.2121C35.0949 46.176 34.9824 46.1302 34.8995 46.0487C34.8166 45.9672 34.77 45.8567 34.77 45.7415V24.7545C34.77 24.2963 34.9552 23.8569 35.2849 23.5329C35.6146 23.2089 36.0617 23.0269 36.5279 23.0269C36.9941 23.0269 37.4412 23.2089 37.7709 23.5329C38.1006 23.8569 38.2858 24.2963 38.2858 24.7545V45.7419C38.2857 45.8571 38.239 45.9675 38.1561 46.0489C38.0732 46.1303 37.9608 46.176 37.8437 46.176ZM35.6543 45.3069H37.4015V24.7545C37.4015 24.5268 37.3095 24.3084 37.1456 24.1474C36.9818 23.9864 36.7596 23.8959 36.5279 23.8959C36.2962 23.8959 36.074 23.9864 35.9101 24.1474C35.7463 24.3084 35.6543 24.5268 35.6543 24.7545V45.3069Z" fill="white"/>
<path d="M25.8728 28.8519H24.355C23.9948 28.8456 23.6517 28.7005 23.3993 28.448C23.1469 28.1954 23.0055 27.8556 23.0055 27.5016C23.0055 27.1477 23.1469 26.8078 23.3993 26.5553C23.6517 26.3028 23.9948 26.1577 24.355 26.1514H25.6574C25.7747 26.1514 25.8872 26.1971 25.9701 26.2786C26.053 26.3601 26.0996 26.4706 26.0996 26.5859C26.0996 26.7011 26.053 26.8117 25.9701 26.8931C25.8872 26.9746 25.7747 27.0204 25.6574 27.0204H24.355C24.2276 27.0242 24.1068 27.0765 24.0181 27.1664C23.9294 27.2562 23.8798 27.3765 23.8798 27.5016C23.8798 27.6268 23.9294 27.7471 24.0181 27.8369C24.1068 27.9268 24.2276 27.9791 24.355 27.9829H25.8728C25.99 27.9829 26.1025 28.0287 26.1854 28.1101C26.2683 28.1916 26.3149 28.3022 26.3149 28.4174C26.3149 28.5326 26.2683 28.6432 26.1854 28.7247C26.1025 28.8061 25.99 28.8519 25.8728 28.8519Z" fill="white"/>
<path d="M35.2121 28.8519H28.5471C28.4298 28.8519 28.3174 28.8061 28.2345 28.7247C28.1516 28.6432 28.105 28.5326 28.105 28.4174C28.105 28.3022 28.1516 28.1916 28.2345 28.1101C28.3174 28.0287 28.4298 27.9829 28.5471 27.9829H34.77V27.0204H28.762C28.6447 27.0204 28.5323 26.9746 28.4493 26.8931C28.3664 26.8117 28.3199 26.7011 28.3199 26.5859C28.3199 26.4706 28.3664 26.3601 28.4493 26.2786C28.5323 26.1971 28.6447 26.1514 28.762 26.1514H35.2121C35.3293 26.1514 35.4418 26.1971 35.5247 26.2786C35.6076 26.3601 35.6542 26.4706 35.6542 26.5859V28.4174C35.6542 28.5326 35.6076 28.6432 35.5247 28.7247C35.4418 28.8061 35.3293 28.8519 35.2121 28.8519Z" fill="white"/>
<path d="M44.4122 28.8519H37.8436C37.7264 28.8519 37.6139 28.8061 37.531 28.7247C37.4481 28.6432 37.4015 28.5326 37.4015 28.4174V26.5859C37.4015 26.4706 37.4481 26.3601 37.531 26.2786C37.6139 26.1971 37.7264 26.1514 37.8436 26.1514H44.1973C44.3146 26.1514 44.4271 26.1971 44.51 26.2786C44.5929 26.3601 44.6395 26.4706 44.6395 26.5859C44.6395 26.7011 44.5929 26.8117 44.51 26.8931C44.4271 26.9746 44.3146 27.0204 44.1973 27.0204H38.2857V27.9829H44.4122C44.5295 27.9829 44.6419 28.0287 44.7248 28.1101C44.8078 28.1916 44.8543 28.3022 44.8543 28.4174C44.8543 28.5326 44.8078 28.6432 44.7248 28.7247C44.6419 28.8061 44.5295 28.8519 44.4122 28.8519Z" fill="white"/>
<path d="M48.6964 28.8519H47.183C47.0657 28.8519 46.9533 28.8061 46.8703 28.7247C46.7874 28.6432 46.7408 28.5326 46.7408 28.4174C46.7408 28.3022 46.7874 28.1916 46.8703 28.1101C46.9533 28.0287 47.0657 27.9829 47.183 27.9829H48.6964C48.8237 27.9791 48.9445 27.9268 49.0332 27.8369C49.1219 27.7471 49.1715 27.6268 49.1715 27.5016C49.1715 27.3765 49.1219 27.2562 49.0332 27.1664C48.9445 27.0765 48.8237 27.0242 48.6964 27.0204H47.4009C47.2837 27.0204 47.1712 26.9746 47.0883 26.8931C47.0054 26.8117 46.9588 26.7011 46.9588 26.5859C46.9588 26.4706 47.0054 26.3601 47.0883 26.2786C47.1712 26.1971 47.2837 26.1514 47.4009 26.1514H48.6964C49.0565 26.1577 49.3996 26.3028 49.652 26.5553C49.9044 26.8078 50.0458 27.1477 50.0458 27.5016C50.0458 27.8556 49.9044 28.1954 49.652 28.448C49.3996 28.7005 49.0565 28.8456 48.6964 28.8519Z" fill="white"/>
<path d="M42.1273 48.9725H30.9283C30.8612 48.9724 30.795 48.9574 30.7347 48.9285C30.6744 48.8995 30.6216 48.8575 30.5802 48.8055C30.5389 48.7536 30.5102 48.6931 30.4962 48.6285C30.4822 48.564 30.4833 48.4972 30.4995 48.4332C30.6818 47.5739 31.1512 46.7992 31.8332 46.2323C32.5151 45.6654 33.3703 45.3388 34.2628 45.3047H38.7928C39.6853 45.3388 40.5405 45.6654 41.2224 46.2323C41.9044 46.7992 42.3738 47.5739 42.5561 48.4332C42.5723 48.4972 42.5734 48.564 42.5594 48.6285C42.5455 48.6931 42.5167 48.7536 42.4754 48.8055C42.434 48.8575 42.3812 48.8995 42.3209 48.9285C42.2606 48.9574 42.1944 48.9724 42.1273 48.9725ZM31.5398 48.1034H41.5158C41.3054 47.5544 40.9347 47.0786 40.4503 46.7357C39.9659 46.3929 39.3893 46.1981 38.7928 46.1759H34.2628C33.6663 46.1981 33.0897 46.3929 32.6053 46.7357C32.1209 47.0786 31.7502 47.5544 31.5398 48.1034Z" fill="white"/>
<path d="M43.3245 48.9726H29.7311C29.6138 48.9726 29.5013 48.9268 29.4184 48.8453C29.3355 48.7638 29.2889 48.6533 29.2889 48.538C29.2889 48.4228 29.3355 48.3123 29.4184 48.2308C29.5013 48.1493 29.6138 48.1035 29.7311 48.1035H43.3245C43.4418 48.1035 43.5542 48.1493 43.6371 48.2308C43.72 48.3123 43.7666 48.4228 43.7666 48.538C43.7666 48.6533 43.72 48.7638 43.6371 48.8453C43.5542 48.9268 43.4418 48.9726 43.3245 48.9726Z" fill="white"/>
<path d="M51.5599 39.747H40.1351C40.0611 39.7471 39.9882 39.7289 39.9232 39.6941C39.8582 39.6593 39.8032 39.609 39.7631 39.5478C39.723 39.4867 39.6992 39.4166 39.6938 39.3441C39.6884 39.2715 39.7017 39.1988 39.7323 39.1326L44.5868 28.6285C44.6107 28.5764 44.6448 28.5294 44.6872 28.4903C44.7296 28.4512 44.7795 28.4206 44.8339 28.4005C44.8883 28.3803 44.9463 28.3709 45.0044 28.3728C45.0625 28.3747 45.1197 28.3878 45.1727 28.4114C45.2256 28.4351 45.2733 28.4688 45.313 28.5105C45.3527 28.5523 45.3836 28.6014 45.404 28.6549C45.4243 28.7085 45.4338 28.7654 45.4317 28.8226C45.4296 28.8797 45.4161 28.9359 45.3919 28.9878L40.8212 38.878H50.872L46.3053 28.9878C46.2813 28.9359 46.268 28.8797 46.2661 28.8227C46.2642 28.7656 46.2737 28.7088 46.2942 28.6554C46.3146 28.6019 46.3456 28.553 46.3853 28.5113C46.4249 28.4697 46.4726 28.4361 46.5255 28.4125C46.5784 28.389 46.6355 28.3759 46.6935 28.374C46.7516 28.3721 46.8094 28.3815 46.8638 28.4016C46.9181 28.4217 46.9679 28.4521 47.0103 28.4911C47.0527 28.5301 47.0869 28.5769 47.1109 28.6289L51.9605 39.133C51.991 39.1991 52.0041 39.2715 51.9988 39.3438C51.9935 39.4162 51.9698 39.486 51.93 39.547C51.8902 39.6081 51.8355 39.6583 51.7708 39.6933C51.7062 39.7282 51.6337 39.7467 51.5599 39.747Z" fill="white"/>
<path d="M45.8928 45.2894H45.8008C42.2608 45.2894 39.6912 42.7761 39.6912 39.3129C39.6912 39.1977 39.7377 39.0872 39.8207 39.0057C39.9036 38.9242 40.016 38.8784 40.1333 38.8784H51.5599C51.6771 38.8784 51.7896 38.9242 51.8725 39.0057C51.9554 39.0872 52.002 39.1977 52.002 39.3129C52.002 42.7783 49.4324 45.2894 45.8928 45.2894ZM40.5909 39.7475C40.7881 42.5206 42.8744 44.4203 45.8008 44.4203H45.8928C48.8187 44.4203 50.9056 42.5206 51.1023 39.7475H40.5909Z" fill="white"/>
<path d="M45.8468 29.4714C45.4168 29.4715 44.9966 29.3463 44.6391 29.1116C44.2816 28.8769 44.0029 28.5433 43.8384 28.153C43.6738 27.7626 43.6307 27.3331 43.7146 26.9187C43.7984 26.5043 44.0055 26.1236 44.3094 25.8249C44.6134 25.5261 45.0008 25.3227 45.4224 25.2402C45.8441 25.1578 46.2811 25.2002 46.6783 25.3619C47.0754 25.5236 47.4149 25.7975 47.6537 26.1488C47.8925 26.5002 48.0199 26.9132 48.0198 27.3358C48.0191 27.902 47.7899 28.4448 47.3825 28.8451C46.9752 29.2455 46.4229 29.4707 45.8468 29.4714ZM45.8468 26.0687C45.5918 26.0686 45.3425 26.1428 45.1304 26.282C44.9183 26.4212 44.753 26.6191 44.6554 26.8506C44.5577 27.0821 44.5321 27.3369 44.5818 27.5827C44.6315 27.8285 44.7543 28.0543 44.9345 28.2316C45.1148 28.4088 45.3445 28.5295 45.5946 28.5784C45.8447 28.6274 46.104 28.6023 46.3396 28.5064C46.5752 28.4105 46.7766 28.2481 46.9182 28.0397C47.0599 27.8314 47.1355 27.5864 47.1355 27.3358C47.1352 26.9999 46.9993 26.6779 46.7577 26.4403C46.5161 26.2028 46.1885 26.0692 45.8468 26.0687Z" fill="white"/>
<path d="M32.9201 39.7475H21.4957C21.4217 39.7475 21.3489 39.7292 21.284 39.6944C21.2191 39.6595 21.1641 39.6093 21.124 39.5481C21.084 39.487 21.0602 39.4169 21.0549 39.3444C21.0495 39.2719 21.0628 39.1992 21.0934 39.1331L25.9488 28.629C25.9972 28.524 26.0862 28.4422 26.196 28.4017C26.3058 28.3611 26.4275 28.3651 26.5343 28.4128C26.6412 28.4604 26.7244 28.5478 26.7656 28.6558C26.8069 28.7637 26.8028 28.8833 26.7543 28.9883L22.1837 38.8784H32.2344L27.6677 28.9883C27.6423 28.9362 27.6278 28.8796 27.6249 28.8218C27.6221 28.7641 27.631 28.7063 27.6511 28.652C27.6712 28.5977 27.7022 28.5479 27.7422 28.5055C27.7821 28.463 27.8303 28.4289 27.8839 28.405C27.9375 28.3811 27.9953 28.368 28.0541 28.3664C28.1129 28.3648 28.1715 28.3747 28.2263 28.3956C28.2812 28.4165 28.3312 28.4479 28.3736 28.4881C28.4159 28.5282 28.4496 28.5763 28.4728 28.6294L33.3229 39.1335C33.3534 39.1997 33.3666 39.2724 33.3612 39.3448C33.3557 39.4173 33.3319 39.4873 33.2918 39.5484C33.2518 39.6095 33.1967 39.6597 33.1318 39.6945C33.0669 39.7293 32.9941 39.7475 32.9201 39.7475Z" fill="white"/>
<path d="M27.2548 45.2894H27.1628C23.6232 45.2894 21.0536 42.7783 21.0536 39.3129C21.0536 39.1977 21.1002 39.0872 21.1831 39.0057C21.266 38.9242 21.3785 38.8784 21.4957 38.8784H32.9223C33.0396 38.8784 33.152 38.9242 33.235 39.0057C33.3179 39.0872 33.3645 39.1977 33.3645 39.3129C33.3645 42.7783 30.7948 45.2894 27.2548 45.2894ZM21.9533 39.7475C22.15 42.5206 24.2369 44.4203 27.1628 44.4203H27.2548C30.1812 44.4203 32.2676 42.5206 32.4647 39.7475H21.9533Z" fill="white"/>
<path d="M27.2089 29.4714C26.779 29.4714 26.3587 29.3461 26.0013 29.1114C25.6439 28.8767 25.3653 28.543 25.2008 28.1527C25.0363 27.7623 24.9933 27.3328 25.0772 26.9184C25.1611 26.5041 25.3681 26.1234 25.6722 25.8247C25.9762 25.526 26.3635 25.3226 26.7851 25.2402C27.2068 25.1578 27.6438 25.2002 28.0409 25.3619C28.4381 25.5237 28.7775 25.7975 29.0163 26.1489C29.255 26.5002 29.3824 26.9133 29.3823 27.3358C29.3816 27.902 29.1524 28.4449 28.7449 28.8453C28.3375 29.2457 27.7851 29.4709 27.2089 29.4714ZM27.2089 26.0687C26.9539 26.0687 26.7046 26.143 26.4926 26.2822C26.2806 26.4215 26.1154 26.6194 26.0178 26.8509C25.9202 27.0824 25.8947 27.3372 25.9444 27.583C25.9942 27.8287 26.1169 28.0545 26.2972 28.2317C26.4776 28.4089 26.7073 28.5296 26.9574 28.5785C27.2074 28.6274 27.4667 28.6023 27.7022 28.5064C27.9378 28.4105 28.1392 28.2481 28.2808 28.0397C28.4225 27.8313 28.4981 27.5864 28.4981 27.3358C28.4977 26.9998 28.3618 26.6777 28.1201 26.4402C27.8784 26.2026 27.5507 26.069 27.2089 26.0687Z" fill="white"/>
</g>
</g>
<defs>
<clipPath id="clip0_964_9470">
<rect width="32" height="26.353" fill="white" transform="translate(20.5 23)"/>
</clipPath>
<clipPath id="clip1_964_9470">
<rect width="31.0556" height="26" fill="white" transform="translate(21 23)"/>
</clipPath>
</defs>
</svg>
