<svg width="20" height="20" viewBox="0 0 20 20" fill="none" xmlns="http://www.w3.org/2000/svg">
<path d="M19.1308 7.41256C19.0732 7.24274 18.967 7.09353 18.8256 6.98335C18.6841 6.87316 18.5134 6.80681 18.3347 6.79251L13.1055 6.377L10.8427 1.36798C10.7706 1.20665 10.6534 1.06963 10.5052 0.973442C10.357 0.877257 10.1841 0.826025 10.0074 0.825928C9.83069 0.825831 9.65774 0.876874 9.50941 0.972896C9.36109 1.06892 9.24372 1.20582 9.17148 1.36707L6.90867 6.377L1.67951 6.79251C1.50382 6.80642 1.33586 6.87066 1.19572 6.97754C1.05559 7.08442 0.949205 7.2294 0.88931 7.39516C0.829415 7.56091 0.818541 7.74041 0.857988 7.91218C0.897436 8.08395 0.985535 8.24072 1.11175 8.36373L4.97605 12.1308L3.60937 18.0488C3.56788 18.2279 3.58118 18.4154 3.64755 18.5869C3.71392 18.7584 3.8303 18.9059 3.98159 19.0105C4.13288 19.115 4.31208 19.1716 4.49596 19.173C4.67983 19.1744 4.85988 19.1205 5.01274 19.0183L10.0071 15.6888L15.0014 19.0183C15.1577 19.1221 15.3419 19.1755 15.5294 19.1713C15.7169 19.1672 15.8986 19.1058 16.0502 18.9953C16.2017 18.8848 16.3158 18.7306 16.3771 18.5533C16.4383 18.3761 16.4438 18.1843 16.3929 18.0039L14.7152 12.1336L18.8758 8.38941C19.1482 8.14359 19.2482 7.76019 19.1308 7.41256Z" fill="#F3CD03"/>
</svg>
